<svg width="48" height="48" viewBox="55 35 190 155" xmlns="http://www.w3.org/2000/svg">

<path d="M76.4,172.5 A85,85 0 1,1 223.6,172.5" style="fill:none;stroke:rgb(200, 200, 200);stroke-width:2px;stroke-linecap:round"/>
<path stroke-width="2" d="M223.6,87.5 A85,85 0 0,1 223.6,172.5" style="fill:none;stroke:rgb(229, 75, 24);stroke-width:2px;stroke-linecap:round"/>

<line x1="76.4" y1="172.5" x2="89" y2="165.5" style="fill:none;stroke:rgb(200, 200, 200);stroke-width:2px;stroke-linecap:round"/>
<line x1="150" y1="45" x2="150" y2="60" style="fill:none;stroke:rgb(200, 200, 200);stroke-width:2px;stroke-linecap:round"/>
<line stroke-width="2" x1="223.6" y1="172.5" x2="211" y2="165.5" style="fill:none;stroke:rgb(229, 75, 24);stroke-width:2px;stroke-linecap:round"/>

<line x1="65" y1="130" x2="79" y2="130" style="fill:none;stroke:rgb(200, 200, 200);stroke-width:1.5px;stroke-linecap:round;opacity:0.42"/>
<line x1="76.4" y1="87.5" x2="89" y2="94.5" style="fill:none;stroke:rgb(200, 200, 200);stroke-width:1.5px;stroke-linecap:round;opacity:0.42"/>
<line x1="107.5" y1="56.4" x2="114.5" y2="68" style="fill:none;stroke:rgb(200, 200, 200);stroke-width:1.5px;stroke-linecap:round;opacity:0.42"/>
<line x1="192.5" y1="56.4" x2="185.5" y2="68" style="fill:none;stroke:rgb(200, 200, 200);stroke-width:1.5px;stroke-linecap:round;opacity:0.42"/>
<line stroke-width="1.5" x1="223.6" y1="87.5" x2="211.5" y2="94.5" style="fill:none;stroke:rgb(229, 75, 24);stroke-width:1.5px;stroke-linecap:round"/>
<line stroke-width="1.5" x1="235" y1="130" x2="221" y2="130" style="fill:none;stroke:rgb(229, 75, 24);stroke-width:1.5px;stroke-linecap:round"/>

<line x1="140" y1="136" x2="218" y2="91" style="fill:none;stroke:rgb(255, 107, 26);stroke-width:2.5px;stroke-linecap:round"/>

<circle cx="150" cy="130" r="8" style="fill:rgb(200, 200, 200)"/>
<circle cx="150" cy="130" r="3.5" style="fill:rgb(255, 107, 26)"/>

</svg>
